<svg xmlns="http://www.w3.org/2000/svg" xmlns:xlink="http://www.w3.org/1999/xlink" xmlns:lucid="lucid" width="1719" height="1018"><g transform="translate(-24 -19)" lucid:page-tab-id="0_0"><path d="M0 0h2122v1501.2H0z" fill="#fff"/><path d="M74.7 826.14H564v165.1H74.7z" stroke="#000" fill="#f1f1f1"/><use xlink:href="#a" transform="matrix(1,0,0,1,79.69983521084879,831.1439918913552) translate(224.5 14.4)"/><path d="M75.73 991.23h-40v-164.9h40z" fill="#fff"/><path d="M75.73 991.23h1657.32v-164.9H75.73z" fill="none"/><path d="M75.73 826.34h-40V661.06h40z" fill="#fff"/><path d="M75.73 826.34h1657.32V661.06H75.73z" fill="none"/><path d="M35.73 826.34h1697.32" stroke="#000" fill="none"/><path d="M75.73 661.06h-40v-295.7h40z" fill="#fff"/><path d="M75.73 661.06h1657.32v-295.7H75.73z" fill="none"/><path d="M35.73 661.06h1697.32" stroke="#000" fill="none"/><path d="M35.73 365.37V35.73h40v329.64z" fill="#fff"/><path d="M75.73 35.73h1657.32v329.64H75.73z" fill="none"/><path d="M35.73 365.37h1697.32M75.73 991.23V35.73M75.73 991.23h-40v-164.9m0 0V661.07m0 0v-295.7m0 0V35.74h40m0 0h1657.32v329.64m0 460.97V661.06m0 0v-295.7M75.73 991.24h1657.32v-164.9" stroke="#000" fill="none"/><use xlink:href="#b" transform="matrix(6.123233995736766e-17,-1,1,6.123233995736766e-17,35.73296210556538,365.3730785649593) translate(95.57499999999999 23.6)"/><use xlink:href="#c" transform="matrix(6.123233995736766e-17,-1,1,6.123233995736766e-17,35.73296210556538,365.3730785649593) translate(163.52499999999998 23.6)"/><use xlink:href="#d" transform="matrix(6.123233995736766e-17,-1,1,6.123233995736766e-17,35.73296210556538,661.0597989529567) translate(91.07499999999999 23.6)"/><use xlink:href="#e" transform="matrix(6.123233995736766e-17,-1,1,6.123233995736766e-17,35.73296210556538,661.0597989529567) translate(134.02499999999998 23.6)"/><use xlink:href="#f" transform="matrix(6.123233995736766e-17,-1,1,6.123233995736766e-17,35.73296210556538,826.3354895551638) translate(24.124999999999993 23.6)"/><use xlink:href="#g" transform="matrix(6.123233995736766e-17,-1,1,6.123233995736766e-17,35.73296210556538,826.3354895551638) translate(67.07499999999999 23.6)"/><use xlink:href="#h" transform="matrix(6.123233995736766e-17,-1,1,6.123233995736766e-17,35.73296210556532,991.2281848297539) translate(42.05 23.6)"/><path d="M503.5 233.3h126v94.5h-126z" stroke="#000" fill="#fff"/><use xlink:href="#i" transform="matrix(1,0,0,1,508.5129799146474,238.30572421424034) translate(31.049999999999997 35.65)"/><use xlink:href="#j" transform="matrix(1,0,0,1,508.5129799146474,238.30572421424034) translate(14.549999999999997 57.25)"/><path d="M196.53 101.24h126v94.5h-126z" stroke="#000" fill="#fff"/><use xlink:href="#k" transform="matrix(1,0,0,1,201.53129158060875,106.23836986352148) translate(29.525 25.025)"/><use xlink:href="#l" transform="matrix(1,0,0,1,201.53129158060875,106.23836986352148) translate(27.549999999999997 46.625)"/><use xlink:href="#m" transform="matrix(1,0,0,1,201.53129158060875,106.23836986352148) translate(7.574999999999996 68.22500000000001)"/><path d="M196.53 233.3h126v94.5h-126z" stroke="#000" fill="#fff"/><use xlink:href="#n" transform="matrix(1,0,0,1,201.53129158060875,238.30572421424034) translate(7.524999999999999 25.025)"/><use xlink:href="#o" transform="matrix(1,0,0,1,201.53129158060875,238.30572421424034) translate(68.475 25.025)"/><use xlink:href="#p" transform="matrix(1,0,0,1,201.53129158060875,238.30572421424034) translate(0.04999999999999716 46.625)"/><use xlink:href="#q" transform="matrix(1,0,0,1,201.53129158060875,238.30572421424034) translate(80.95 46.625)"/><use xlink:href="#r" transform="matrix(1,0,0,1,201.53129158060875,238.30572421424034) translate(42.55 68.22500000000001)"/><path d="M156.73 208.75h19.4v-60.27h3.52" stroke="#000" fill="none"/><path d="M156.75 209.25h-.56l.03-.5v-.5h.52zM194.4 148.48l-14.25 4.64v-9.27z"/><path d="M196.03 148.48l-16.38 5.33v-10.64zm-15.38 3.95l12.15-3.95-12.15-3.94z"/><path d="M429.32 167.27l63 47.25-63 47.24-63-47.24z" stroke="#000" fill="#fff"/><use xlink:href="#s" transform="matrix(1,0,0,1,371.3296210556523,172.27204703888094) translate(27.529999999999994 46.275)"/><path d="M429.32 166.15v-17.67h57.3" stroke="#000" fill="none"/><path d="M429.82 167.02l-.5-.37-.5.37v-.9h1zM501.4 148.48l-14.27 4.64v-9.27z"/><path d="M503 148.48l-16.37 5.33v-10.64zm-15.37 3.95l12.15-3.95-12.15-3.94z"/><use xlink:href="#t" transform="matrix(1,0,0,1,412.08863000157663,123.5740709764916) translate(0 14.4)"/><path d="M323.52 148.48h20.74v66.04h4.85" stroke="#000" fill="none"/><path d="M323.53 148.98h-.5v-1h.5zM363.88 214.52l-14.27 4.63v-9.27z"/><path d="M365.5 214.52l-16.4 5.32V209.2zm-15.4 3.94l12.16-3.94-12.15-3.95z"/><path d="M429.32 262.9v21.7h57.3" stroke="#000" fill="none"/><path d="M429.32 262.4l.5-.4v.9h-1v-.9zM501.4 284.6l-14.27 4.63v-9.27z"/><path d="M503 284.6l-16.37 5.32v-10.64zm-15.37 3.95l12.15-3.95-12.15-3.95z"/><use xlink:href="#u" transform="matrix(1,0,0,1,417.217073151652,288.40044936573474) translate(0 14.4)"/><path d="M671.06 167.27h125.98v94.5H671.06z" stroke="#000" fill="#fff"/><use xlink:href="#v" transform="matrix(1,0,0,1,676.0597989529567,172.27204703888094) translate(12.575000000000003 17.05625)"/><use xlink:href="#w" transform="matrix(1,0,0,1,676.0597989529567,172.27204703888094) translate(17.575000000000003 17.05625)"/><use xlink:href="#x" transform="matrix(1,0,0,1,676.0597989529567,172.27204703888094) translate(75.525 17.05625)"/><use xlink:href="#y" transform="matrix(1,0,0,1,676.0597989529567,172.27204703888094) translate(28.025 38.65625)"/><use xlink:href="#z" transform="matrix(1,0,0,1,676.0597989529567,172.27204703888094) translate(27.549999999999997 60.25625)"/><use xlink:href="#A" transform="matrix(1,0,0,1,676.0597989529567,172.27204703888094) translate(73.45 60.25625)"/><use xlink:href="#B" transform="matrix(1,0,0,1,676.0597989529567,172.27204703888094) translate(26.124999999999996 81.85625000000002)"/><path d="M323.52 280.55h20.74v-66.03h4.85" stroke="#000" fill="none"/><path d="M323.53 281.05h-.5v-1h.5zM363.88 214.52l-14.27 4.63v-9.27z"/><path d="M365.5 214.52l-16.4 5.32V209.2zm-15.4 3.94l12.16-3.94-12.15-3.95z"/><path d="M1160.94 859.16h126v94.5h-126z" stroke="#000" fill="#fff"/><use xlink:href="#C" transform="matrix(1,0,0,1,1165.9441130626662,864.1608304790349) translate(21.525 35.65)"/><use xlink:href="#D" transform="matrix(1,0,0,1,1165.9441130626662,864.1608304790349) translate(32.075 57.25)"/><path d="M1224.3 569.3v39.5h-98.7v297.6h18.46" stroke="#000" fill="none"/><path d="M1224.8 569.3h-1v-.5h1zM1158.83 906.4l-14.27 4.64v-9.27z"/><path d="M1160.44 906.4l-16.38 5.33v-10.65zm-15.38 3.95l12.15-3.95-12.14-3.94z"/><path d="M155.73 208.75c0 16.57-13.43 30-30 30s-30-13.43-30-30 13.43-30 30-30 30 13.43 30 30z" stroke="#000" fill="#fff"/><use xlink:href="#E" transform="matrix(1,0,0,1,95.73296210556526,238.74980069324477) translate(11.024999999999999 14.4)"/><path d="M998 473.8h126v94.5H998z" stroke="#000" fill="#fff"/><use xlink:href="#F" transform="matrix(1,0,0,1,1003.012424631454,478.81165774691874) translate(18.549999999999997 35.65)"/><use xlink:href="#A" transform="matrix(1,0,0,1,1003.012424631454,478.81165774691874) translate(82.45 35.65)"/><use xlink:href="#G" transform="matrix(1,0,0,1,1003.012424631454,478.81165774691874) translate(5.549999999999997 57.25)"/><use xlink:href="#H" transform="matrix(1,0,0,1,1003.012424631454,478.81165774691874) translate(77.5 57.25)"/><path d="M671.06 536h125.98v94.48H671.06z" stroke="#000" fill="#fff"/><use xlink:href="#I" transform="matrix(1,0,0,1,676.0597989529567,540.9944315834784) translate(20.574999999999996 35.65)"/><use xlink:href="#D" transform="matrix(1,0,0,1,676.0597989529567,540.9944315834784) translate(32.075 57.25)"/><path d="M671.06 404.88h125.98v94.5H671.06z" stroke="#000" fill="#fff"/><use xlink:href="#J" transform="matrix(1,0,0,1,676.0597989529567,409.88488958858096) translate(33 35.65)"/><use xlink:href="#K" transform="matrix(1,0,0,1,676.0597989529567,409.88488958858096) translate(10.100000000000001 57.25)"/><path d="M156.73 208.75h19.4v71.8h3.52" stroke="#000" fill="none"/><path d="M156.75 209.25h-.56l.03-.5v-.5h.52zM194.4 280.55l-14.25 4.64v-9.3z"/><path d="M196.03 280.55l-16.38 5.32v-10.64zm-15.38 3.95l12.15-3.95-12.15-3.95z"/><path d="M1161.32 473.8h126v94.5h-126z" stroke="#000" fill="#fff"/><use xlink:href="#L" transform="matrix(1,0,0,1,1166.3212684308698,478.8116577469188) translate(15.075000000000003 17.05625)"/><use xlink:href="#x" transform="matrix(1,0,0,1,1166.3212684308698,478.8116577469188) translate(73.025 17.05625)"/><use xlink:href="#y" transform="matrix(1,0,0,1,1166.3212684308698,478.8116577469188) translate(28.025 38.65625)"/><use xlink:href="#M" transform="matrix(1,0,0,1,1166.3212684308698,478.8116577469188) translate(16.125 60.25625)"/><use xlink:href="#A" transform="matrix(1,0,0,1,1166.3212684308698,478.8116577469188) translate(84.875 60.25625)"/><use xlink:href="#N" transform="matrix(1,0,0,1,1166.3212684308698,478.8116577469188) translate(24.599999999999994 81.85625000000002)"/><path d="M798.04 583.24h20.18v-62.18h4.3" stroke="#000" fill="none"/><path d="M798.06 583.74h-.52v-1h.52zM837.27 521.06L823 525.7v-9.28z"/><path d="M838.9 521.06l-16.4 5.32v-10.65zM823.5 525l12.16-3.94-12.15-3.95z"/><path d="M902.72 473.8l63 47.26-63 47.24-63-47.24z" stroke="#000" fill="#fff"/><use xlink:href="#O" transform="matrix(1,0,0,1,844.7246094807829,478.8116577469188) translate(33.730000000000004 46.275)"/><path d="M456.07 906.4c0 16.57-13.43 30-30 30s-30-13.43-30-30c0-16.56 13.43-30 30-30s30 13.44 30 30z" stroke="#000" fill="#fff"/><use xlink:href="#P" transform="matrix(1,0,0,1,396.0697338591593,936.4049249672239) translate(-2.4750000000000014 14.4)"/><use xlink:href="#Q" transform="matrix(1,0,0,1,396.0697338591593,936.4049249672239) translate(12.524999999999999 36)"/><path d="M540.25 906.4c0 16.57-13.43 30-30 30-16.56 0-30-13.43-30-30 0-16.56 13.44-30 30-30 16.57 0 30 13.44 30 30z" stroke="#000" stroke-width="5" fill="#fff"/><use xlink:href="#P" transform="matrix(1,0,0,1,480.25386776745245,936.4049249672239) translate(-2.4750000000000014 14.4)"/><use xlink:href="#R" transform="matrix(1,0,0,1,480.25386776745245,936.4049249672239) translate(15 36)"/><path d="M95.73 859.16h126v94.5h-126z" stroke="#000" fill="#fff"/><use xlink:href="#S" transform="matrix(1,0,0,1,100.73296210556526,864.1608304790348) translate(39.525 46.275)"/><path d="M308.9 859.16l63 47.24-63 47.25-63-47.25z" stroke="#000" fill="#fff"/><use xlink:href="#T" transform="matrix(1,0,0,1,250.90134798236227,864.1608304790348) translate(22.525 35.3)"/><use xlink:href="#U" transform="matrix(1,0,0,1,250.90134798236227,864.1608304790348) translate(19.099999999999994 56.9)"/><path d="M1006.2 991.23h727.06v33.02H1006.2z" stroke="#000" stroke-opacity="0" fill="#fff" fill-opacity="0"/><use xlink:href="#V" transform="matrix(1,0,0,1,1011.2087703649013,996.2281848297536) translate(333.0077650712975 22.36340533672173)"/><use xlink:href="#W" transform="matrix(1,0,0,1,1011.2087703649013,996.2281848297536) translate(489.08569815050123 22.36340533672173)"/><use xlink:href="#X" transform="matrix(1,0,0,1,1011.2087703649013,996.2281848297536) translate(593.0600028236622 22.36340533672173)"/><path d="M1161.32 694.08h126v94.48h-126z" stroke="#000" fill="#fff"/><use xlink:href="#Y" transform="matrix(1,0,0,1,1166.3212684308698,699.0766375406362) translate(26.525 35.65)"/><use xlink:href="#D" transform="matrix(1,0,0,1,1166.3212684308698,699.0766375406362) translate(32.075 57.25)"/><path d="M1224.3 569.3v107.9" stroke="#000" fill="none"/><path d="M1224.8 569.3h-1v-.5h1zM1224.3 691.96l-4.62-14.27h9.27z"/><path d="M1224.3 693.58l-5.3-16.4h10.64zm-3.93-15.4l3.94 12.16 3.96-12.15z"/><path d="M503.5 101.24h126v94.5h-126z" stroke="#000" fill="#fff"/><use xlink:href="#Z" transform="matrix(1,0,0,1,508.5129799146474,106.23836986352148) translate(42.525 35.65)"/><use xlink:href="#aa" transform="matrix(1,0,0,1,508.5129799146474,106.23836986352148) translate(14.549999999999997 57.25)"/><path d="M630.5 148.48h19.78v66.04h3.9" stroke="#000" fill="none"/><path d="M630.5 148.98h-.5v-1h.5zM668.94 214.52l-14.26 4.63v-9.27z"/><path d="M670.56 214.52l-16.38 5.32V209.2zm-15.38 3.94l12.14-3.94-12.14-3.95z"/><path d="M630.5 280.55h19.78v-66.03h3.9" stroke="#000" fill="none"/><path d="M630.5 281.05h-.5v-1h.5zM668.94 214.52l-14.26 4.63v-9.27z"/><path d="M670.56 214.52l-16.38 5.32V209.2zm-15.38 3.94l12.14-3.94-12.14-3.95z"/><path d="M734.05 262.76V388" stroke="#000" fill="none"/><path d="M734.55 262.77h-1v-.5h1zM734.05 402.77l-4.63-14.27h9.27z"/><path d="M734.05 404.38L728.73 388h10.65zM730.1 389l3.95 12.15L738 389z"/><path d="M734.05 500.37v18.74" stroke="#000" fill="none"/><path d="M734.55 500.4h-1v-.53h1zM734.05 533.88l-4.63-14.27h9.27z"/><path d="M734.05 535.5l-5.32-16.4h10.65zm-3.95-15.4l3.95 12.16L738 520.1z"/><path d="M902.72 472.7V68.2h-336.2v16.13" stroke="#000" fill="none"/><path d="M903.22 473.56l-.5-.37-.5.36v-.9h1zM566.5 99.12l-4.63-14.27h9.27z"/><path d="M566.5 100.74l-5.32-16.4h10.65zm-3.94-15.4l3.95 12.16 3.95-12.15z"/><use xlink:href="#u" transform="matrix(1,0,0,1,910.7167354650347,456.9766726383727) translate(0 14.4)"/><path d="M967.04 521.06h14.1" stroke="#000" fill="none"/><path d="M967.06 521.56h-1.18l.66-.5-.66-.5h1.18zM995.9 521.06l-14.27 4.63v-9.28z"/><path d="M997.5 521.06l-16.37 5.32v-10.65zM982.14 525l12.15-3.94-12.15-3.95z"/><use xlink:href="#ab" transform="matrix(1,0,0,1,960.8671941575532,495.45575223510775) translate(0 14.4)"/><path d="M1125 521.06h19.44" stroke="#000" fill="none"/><path d="M1125 521.56h-.5v-1h.5zM1159.2 521.06l-14.26 4.63v-9.28z"/><path d="M1160.82 521.06l-16.38 5.32v-10.65zm-15.38 3.94l12.15-3.94-12.16-3.95z"/><path d="M1375.73 694.08l63 47.24-63 47.24-63-47.24z" stroke="#000" fill="#fff"/><g><use xlink:href="#ac" transform="matrix(1,0,0,1,1317.7424425377098,699.0766375406362) translate(14.529999999999996 46.275)"/></g><path d="M1474.07 859.16l63 47.24-63 47.25-63-47.25z" stroke="#000" fill="#fff"/><g><use xlink:href="#ad" transform="matrix(1,0,0,1,1416.074847801623,864.1608304790349) translate(14.529999999999996 46.275)"/></g><path d="M1715.2 521.06c0 16.56-13.43 30-30 30-16.56 0-30-13.44-30-30 0-16.57 13.44-30 30-30 16.57 0 30 13.43 30 30z" stroke="#000" stroke-width="5" fill="#fff"/><g><use xlink:href="#ae" transform="matrix(1,0,0,1,1655.2055825405794,551.0557522351078) translate(14 14.4)"/></g><path d="M1627.4 521.06h8.92" stroke="#000" fill="none"/><path d="M1627.4 521.56h-.5v-1h.5z"/><path d="M1651.1 521.06l-14.28 4.63v-9.28z" stroke="#000"/><path d="M1500.4 473.8h126v94.5h-126z" stroke="#000" fill="#fff"/><g><use xlink:href="#F" transform="matrix(1,0,0,1,1505.4072530655358,478.8116577469188) translate(18.549999999999997 25.025)"/><use xlink:href="#A" transform="matrix(1,0,0,1,1505.4072530655358,478.8116577469188) translate(82.45 25.025)"/><use xlink:href="#af" transform="matrix(1,0,0,1,1505.4072530655358,478.8116577469188) translate(24.525 46.625)"/><use xlink:href="#ag" transform="matrix(1,0,0,1,1505.4072530655358,478.8116577469188) translate(15.049999999999997 68.22500000000001)"/></g><path d="M1288.3 741.32h7.23" stroke="#000" fill="none"/><path d="M1288.32 741.82h-.5v-1h.5zM1310.3 741.32l-14.27 4.64v-9.27z"/><path d="M1311.9 741.32l-16.37 5.32V736zm-15.37 3.95l12.14-3.95-12.14-3.95z"/><path d="M1287.93 906.4h105.93" stroke="#000" fill="none"/><path d="M1287.94 906.9h-.5v-1h.5zM1408.62 906.4l-14.26 4.64v-9.27z"/><path d="M1410.24 906.4l-16.38 5.33v-10.65zm-15.38 3.95l12.15-3.95-12.14-3.94z"/><path d="M1375.73 692.95V68.22H566.5v16.13" stroke="#000" fill="none"/><path d="M1376.23 693.83l-.5-.38-.5.38v-.9h1zM566.5 99.12l-4.63-14.27h9.27z"/><path d="M566.5 100.74l-5.32-16.4h10.65zm-3.94-15.4l3.95 12.16 3.95-12.15z"/><g><use xlink:href="#u" transform="matrix(1,0,0,1,1383.734568521962,672.7031407320126) translate(0 14.4)"/></g><path d="M1474.07 858.04V68.22H566.5v16.13" stroke="#000" fill="none"/><path d="M1474.57 858.9l-.5-.36-.5.37v-.88h1zM566.5 99.12l-4.63-14.27h9.27z"/><path d="M566.5 100.74l-5.32-16.4h10.65zm-3.94-15.4l3.95 12.16 3.95-12.15z"/><g><use xlink:href="#u" transform="matrix(1,0,0,1,1482.066973785875,843.3179558910662) translate(0 14.4)"/></g><path d="M1440.06 741.32h123.34V585.18" stroke="#000" fill="none"/><path d="M1440.07 741.82h-1.18l.66-.5-.67-.5h1.17zM1568.03 584.68h-9.27l4.64-14.26z"/><path d="M1568.72 585.18h-10.64l5.32-16.38zm-9.27-1h7.9l-3.95-12.14z"/><g><use xlink:href="#ah" transform="matrix(1,0,0,1,1434.0592746424245,714.9573266921034) translate(0 14.908936891147821)"/></g><path d="M1538.4 906.4h25V585.18" stroke="#000" fill="none"/><path d="M1538.4 906.9h-1.17l.66-.5-.67-.5h1.18zM1568.03 584.68h-9.27l4.64-14.26z"/><path d="M1568.72 585.18h-10.64l5.32-16.38zm-9.27-1h7.9l-3.95-12.14z"/><g><use xlink:href="#ah" transform="matrix(1,0,0,1,1525.0120667056772,871.6470955229332) translate(0 14.908936891147821)"/></g><path d="M798.04 452.13h20.18v68.93h4.3" stroke="#000" fill="none"/><path d="M798.06 452.63h-.52v-1h.52zM837.27 521.06L823 525.7v-9.28z"/><path d="M838.9 521.06l-16.4 5.32v-10.65zM823.5 525l12.16-3.94-12.15-3.95z"/><defs><path d="M194 0L95-120 63-95V0H30v-248h33v124l119-124h40L117-140 236 0h-42" id="ai"/><path d="M100-194c63 0 86 42 84 106H49c0 40 14 67 53 68 26 1 43-12 49-29l28 8c-11 28-37 45-77 45C44 4 14-33 15-96c1-61 26-98 85-98zm52 81c6-60-76-77-97-28-3 7-6 17-6 28h103" id="aj"/><path d="M179-190L93 31C79 59 56 82 12 73V49c39 6 53-20 64-50L1-190h34L92-34l54-156h33" id="ak"/><g id="a"><use transform="matrix(0.05,0,0,0.05,0,0)" xlink:href="#ai"/><use transform="matrix(0.05,0,0,0.05,12,0)" xlink:href="#aj"/><use transform="matrix(0.05,0,0,0.05,22,0)" xlink:href="#ak"/></g><path d="M212-179c-10-28-35-45-73-45-59 0-87 40-87 99 0 60 29 101 89 101 43 0 62-24 78-52l27 14C228-24 195 4 139 4 59 4 22-46 18-125c-6-104 99-153 187-111 19 9 31 26 39 46" id="al"/><path d="M100-194c62-1 85 37 85 99 1 63-27 99-86 99S16-35 15-95c0-66 28-99 85-99zM99-20c44 1 53-31 53-75 0-43-8-75-51-75s-53 32-53 75 10 74 51 75" id="am"/><path d="M117-194c89-4 53 116 60 194h-32v-121c0-31-8-49-39-48C34-167 62-67 57 0H25l-1-190h30c1 10-1 24 2 32 11-22 29-35 61-36" id="an"/><path d="M59-47c-2 24 18 29 38 22v24C64 9 27 4 27-40v-127H5v-23h24l9-43h21v43h35v23H59v120" id="ao"/><g id="b"><use transform="matrix(0.05,0,0,0.05,0,0)" xlink:href="#al"/><use transform="matrix(0.05,0,0,0.05,12.950000000000001,0)" xlink:href="#am"/><use transform="matrix(0.05,0,0,0.05,22.950000000000003,0)" xlink:href="#an"/><use transform="matrix(0.05,0,0,0.05,32.95,0)" xlink:href="#ao"/><use transform="matrix(0.05,0,0,0.05,37.95,0)" xlink:href="#aj"/><use transform="matrix(0.05,0,0,0.05,47.95,0)" xlink:href="#an"/><use transform="matrix(0.05,0,0,0.05,57.95,0)" xlink:href="#ao"/></g><path d="M205 0l-28-72H64L36 0H1l101-248h38L239 0h-34zm-38-99l-47-123c-12 45-31 82-46 123h93" id="ap"/><path d="M84 4C-5 8 30-112 23-190h32v120c0 31 7 50 39 49 72-2 45-101 50-169h31l1 190h-30c-1-10 1-25-2-33-11 22-28 36-60 37" id="aq"/><path d="M106-169C34-169 62-67 57 0H25v-261h32l-1 103c12-21 28-36 61-36 89 0 53 116 60 194h-32v-121c2-32-8-49-39-48" id="ar"/><path d="M114-163C36-179 61-72 57 0H25l-1-190h30c1 12-1 29 2 39 6-27 23-49 58-41v29" id="as"/><path d="M24-231v-30h32v30H24zM24 0v-190h32V0H24" id="at"/><g id="c"><use transform="matrix(0.05,0,0,0.05,0,0)" xlink:href="#ap"/><use transform="matrix(0.05,0,0,0.05,12,0)" xlink:href="#aq"/><use transform="matrix(0.05,0,0,0.05,22,0)" xlink:href="#ao"/><use transform="matrix(0.05,0,0,0.05,27,0)" xlink:href="#ar"/><use transform="matrix(0.05,0,0,0.05,37,0)" xlink:href="#am"/><use transform="matrix(0.05,0,0,0.05,47,0)" xlink:href="#as"/><use transform="matrix(0.05,0,0,0.05,52.95,0)" xlink:href="#at"/><use transform="matrix(0.05,0,0,0.05,56.900000000000006,0)" xlink:href="#ao"/><use transform="matrix(0.05,0,0,0.05,61.900000000000006,0)" xlink:href="#ak"/></g><path d="M30-248c118-7 216 8 213 122C240-48 200 0 122 0H30v-248zM63-27c89 8 146-16 146-99s-60-101-146-95v194" id="au"/><path d="M141-36C126-15 110 5 73 4 37 3 15-17 15-53c-1-64 63-63 125-63 3-35-9-54-41-54-24 1-41 7-42 31l-33-3c5-37 33-52 76-52 45 0 72 20 72 64v82c-1 20 7 32 28 27v20c-31 9-61-2-59-35zM48-53c0 20 12 33 32 33 41-3 63-29 60-74-43 2-92-5-92 41" id="av"/><g id="d"><use transform="matrix(0.05,0,0,0.05,0,0)" xlink:href="#au"/><use transform="matrix(0.05,0,0,0.05,12.950000000000001,0)" xlink:href="#av"/><use transform="matrix(0.05,0,0,0.05,22.950000000000003,0)" xlink:href="#ao"/><use transform="matrix(0.05,0,0,0.05,27.950000000000003,0)" xlink:href="#av"/></g><path d="M240 0l2-218c-23 76-54 145-80 218h-23L58-218 59 0H30v-248h44l77 211c21-75 51-140 76-211h43V0h-30" id="aw"/><path d="M177-190C167-65 218 103 67 71c-23-6-38-20-44-43l32-5c15 47 100 32 89-28v-30C133-14 115 1 83 1 29 1 15-40 15-95c0-56 16-97 71-98 29-1 48 16 59 35 1-10 0-23 2-32h30zM94-22c36 0 50-32 50-73 0-42-14-75-50-75-39 0-46 34-46 75s6 73 46 73" id="ax"/><g id="e"><use transform="matrix(0.05,0,0,0.05,0,0)" xlink:href="#aw"/><use transform="matrix(0.05,0,0,0.05,14.950000000000001,0)" xlink:href="#av"/><use transform="matrix(0.05,0,0,0.05,24.950000000000003,0)" xlink:href="#an"/><use transform="matrix(0.05,0,0,0.05,34.95,0)" xlink:href="#av"/><use transform="matrix(0.05,0,0,0.05,44.95,0)" xlink:href="#ax"/><use transform="matrix(0.05,0,0,0.05,54.95,0)" xlink:href="#aj"/><use transform="matrix(0.05,0,0,0.05,64.95,0)" xlink:href="#as"/></g><path d="M30-248c87 1 191-15 191 75 0 78-77 80-158 76V0H30v-248zm33 125c57 0 124 11 124-50 0-59-68-47-124-48v98" id="ay"/><g id="f"><use transform="matrix(0.05,0,0,0.05,0,0)" xlink:href="#ay"/><use transform="matrix(0.05,0,0,0.05,12,0)" xlink:href="#aj"/><use transform="matrix(0.05,0,0,0.05,22,0)" xlink:href="#aj"/><use transform="matrix(0.05,0,0,0.05,32,0)" xlink:href="#as"/></g><path d="M233-177c-1 41-23 64-60 70L243 0h-38l-65-103H63V0H30v-248c88 3 205-21 203 71zM63-129c60-2 137 13 137-47 0-61-80-42-137-45v92" id="az"/><path d="M108 0H70L1-190h34L89-25l56-165h34" id="aA"/><path d="M206 0h-36l-40-164L89 0H53L-1-190h32L70-26l43-164h34l41 164 42-164h31" id="aB"/><g id="g"><use transform="matrix(0.05,0,0,0.05,0,0)" xlink:href="#az"/><use transform="matrix(0.05,0,0,0.05,12.950000000000001,0)" xlink:href="#aj"/><use transform="matrix(0.05,0,0,0.05,22.950000000000003,0)" xlink:href="#aA"/><use transform="matrix(0.05,0,0,0.05,31.950000000000003,0)" xlink:href="#at"/><use transform="matrix(0.05,0,0,0.05,35.900000000000006,0)" xlink:href="#aj"/><use transform="matrix(0.05,0,0,0.05,45.900000000000006,0)" xlink:href="#aB"/><use transform="matrix(0.05,0,0,0.05,58.85,0)" xlink:href="#aj"/><use transform="matrix(0.05,0,0,0.05,68.85000000000001,0)" xlink:href="#as"/></g><path d="M135-143c-3-34-86-38-87 0 15 53 115 12 119 90S17 21 10-45l28-5c4 36 97 45 98 0-10-56-113-15-118-90-4-57 82-63 122-42 12 7 21 19 24 35" id="aC"/><path d="M85-194c31 0 48 13 60 33l-1-100h32l1 261h-30c-2-10 0-23-3-31C134-8 116 4 85 4 32 4 16-35 15-94c0-66 23-100 70-100zm9 24c-40 0-46 34-46 75 0 40 6 74 45 74 42 0 51-32 51-76 0-42-9-74-50-73" id="aD"/><g id="h"><use transform="matrix(0.05,0,0,0.05,0,0)" xlink:href="#al"/><use transform="matrix(0.05,0,0,0.05,12.950000000000001,0)" xlink:href="#aq"/><use transform="matrix(0.05,0,0,0.05,22.950000000000003,0)" xlink:href="#aC"/><use transform="matrix(0.05,0,0,0.05,31.950000000000003,0)" xlink:href="#ao"/><use transform="matrix(0.05,0,0,0.05,36.95,0)" xlink:href="#am"/><use transform="matrix(0.05,0,0,0.05,46.95,0)" xlink:href="#aD"/><use transform="matrix(0.05,0,0,0.05,56.95,0)" xlink:href="#at"/><use transform="matrix(0.05,0,0,0.05,60.900000000000006,0)" xlink:href="#av"/><use transform="matrix(0.05,0,0,0.05,70.9,0)" xlink:href="#an"/></g><g id="i"><use transform="matrix(0.05,0,0,0.05,0,0)" xlink:href="#al"/><use transform="matrix(0.05,0,0,0.05,12.950000000000001,0)" xlink:href="#as"/><use transform="matrix(0.05,0,0,0.05,18.900000000000002,0)" xlink:href="#aj"/><use transform="matrix(0.05,0,0,0.05,28.900000000000002,0)" xlink:href="#av"/><use transform="matrix(0.05,0,0,0.05,38.900000000000006,0)" xlink:href="#ao"/><use transform="matrix(0.05,0,0,0.05,43.900000000000006,0)" xlink:href="#aj"/></g><path d="M96-169c-40 0-48 33-48 73s9 75 48 75c24 0 41-14 43-38l32 2c-6 37-31 61-74 61-59 0-76-41-82-99-10-93 101-131 147-64 4 7 5 14 7 22l-32 3c-4-21-16-35-41-35" id="aE"/><path d="M115-194c53 0 69 39 70 98 0 66-23 100-70 100C84 3 66-7 56-30L54 0H23l1-261h32v101c10-23 28-34 59-34zm-8 174c40 0 45-34 45-75 0-40-5-75-45-74-42 0-51 32-51 76 0 43 10 73 51 73" id="aF"/><path d="M24 0v-261h32V0H24" id="aG"/><g id="j"><use transform="matrix(0.05,0,0,0.05,0,0)" xlink:href="#aA"/><use transform="matrix(0.05,0,0,0.05,9,0)" xlink:href="#am"/><use transform="matrix(0.05,0,0,0.05,19,0)" xlink:href="#aE"/><use transform="matrix(0.05,0,0,0.05,28,0)" xlink:href="#av"/><use transform="matrix(0.05,0,0,0.05,38,0)" xlink:href="#aF"/><use transform="matrix(0.05,0,0,0.05,48,0)" xlink:href="#aq"/><use transform="matrix(0.05,0,0,0.05,58,0)" xlink:href="#aG"/><use transform="matrix(0.05,0,0,0.05,61.95,0)" xlink:href="#av"/><use transform="matrix(0.05,0,0,0.05,71.95,0)" xlink:href="#as"/><use transform="matrix(0.05,0,0,0.05,77.9,0)" xlink:href="#ak"/></g><path d="M185-189c-5-48-123-54-124 2 14 75 158 14 163 119 3 78-121 87-175 55-17-10-28-26-33-46l33-7c5 56 141 63 141-1 0-78-155-14-162-118-5-82 145-84 179-34 5 7 8 16 11 25" id="aH"/><g id="k"><use transform="matrix(0.05,0,0,0.05,0,0)" xlink:href="#aH"/><use transform="matrix(0.05,0,0,0.05,12,0)" xlink:href="#aj"/><use transform="matrix(0.05,0,0,0.05,22,0)" xlink:href="#av"/><use transform="matrix(0.05,0,0,0.05,32,0)" xlink:href="#as"/><use transform="matrix(0.05,0,0,0.05,37.95,0)" xlink:href="#aE"/><use transform="matrix(0.05,0,0,0.05,46.95,0)" xlink:href="#ar"/></g><path d="M141 0L90-78 38 0H4l68-98-65-92h35l48 74 47-74h35l-64 92 68 98h-35" id="aI"/><g id="l"><use transform="matrix(0.05,0,0,0.05,0,0)" xlink:href="#aj"/><use transform="matrix(0.05,0,0,0.05,10,0)" xlink:href="#aI"/><use transform="matrix(0.05,0,0,0.05,19,0)" xlink:href="#at"/><use transform="matrix(0.05,0,0,0.05,22.95,0)" xlink:href="#aC"/><use transform="matrix(0.05,0,0,0.05,31.950000000000003,0)" xlink:href="#ao"/><use transform="matrix(0.05,0,0,0.05,36.95,0)" xlink:href="#at"/><use transform="matrix(0.05,0,0,0.05,40.900000000000006,0)" xlink:href="#an"/><use transform="matrix(0.05,0,0,0.05,50.900000000000006,0)" xlink:href="#ax"/></g><g id="m"><use transform="matrix(0.05,0,0,0.05,0,0)" xlink:href="#aA"/><use transform="matrix(0.05,0,0,0.05,9,0)" xlink:href="#am"/><use transform="matrix(0.05,0,0,0.05,19,0)" xlink:href="#aE"/><use transform="matrix(0.05,0,0,0.05,28,0)" xlink:href="#av"/><use transform="matrix(0.05,0,0,0.05,38,0)" xlink:href="#aF"/><use transform="matrix(0.05,0,0,0.05,48,0)" xlink:href="#aq"/><use transform="matrix(0.05,0,0,0.05,58,0)" xlink:href="#aG"/><use transform="matrix(0.05,0,0,0.05,61.95,0)" xlink:href="#av"/><use transform="matrix(0.05,0,0,0.05,71.95,0)" xlink:href="#as"/><use transform="matrix(0.05,0,0,0.05,77.9,0)" xlink:href="#at"/><use transform="matrix(0.05,0,0,0.05,81.85000000000001,0)" xlink:href="#aj"/><use transform="matrix(0.05,0,0,0.05,91.85000000000001,0)" xlink:href="#aC"/></g><path d="M30 0v-248h187v28H63v79h144v27H63v87h162V0H30" id="aJ"/><g id="n"><use transform="matrix(0.05,0,0,0.05,0,0)" xlink:href="#aJ"/><use transform="matrix(0.05,0,0,0.05,12,0)" xlink:href="#aI"/><use transform="matrix(0.05,0,0,0.05,21,0)" xlink:href="#ao"/><use transform="matrix(0.05,0,0,0.05,26,0)" xlink:href="#as"/><use transform="matrix(0.05,0,0,0.05,31.950000000000003,0)" xlink:href="#av"/><use transform="matrix(0.05,0,0,0.05,41.95,0)" xlink:href="#aE"/><use transform="matrix(0.05,0,0,0.05,50.95,0)" xlink:href="#ao"/></g><path d="M143 4C61 4 22-44 18-125c-5-107 100-154 193-111 17 8 29 25 37 43l-32 9c-13-25-37-40-76-40-61 0-88 39-88 99 0 61 29 100 91 101 35 0 62-11 79-27v-45h-74v-28h105v86C228-13 192 4 143 4" id="aK"/><path d="M140-251c81 0 123 46 123 126C263-53 228-8 163 1c7 30 30 48 69 40v23c-55 16-95-15-103-61C56-3 17-48 17-125c0-80 42-126 123-126zm0 227c63 0 89-41 89-101s-29-99-89-99c-61 0-89 39-89 99S79-25 140-24" id="aL"/><g id="o"><use transform="matrix(0.05,0,0,0.05,0,0)" xlink:href="#aK"/><use transform="matrix(0.05,0,0,0.05,14,0)" xlink:href="#aH"/><use transform="matrix(0.05,0,0,0.05,26,0)" xlink:href="#aL"/></g><path d="M101-234c-31-9-42 10-38 44h38v23H63V0H32v-167H5v-23h27c-7-52 17-82 69-68v24" id="aM"/><g id="p"><use transform="matrix(0.05,0,0,0.05,0,0)" xlink:href="#as"/><use transform="matrix(0.05,0,0,0.05,5.95,0)" xlink:href="#aj"/><use transform="matrix(0.05,0,0,0.05,15.949999999999998,0)" xlink:href="#aM"/><use transform="matrix(0.05,0,0,0.05,20.95,0)" xlink:href="#aj"/><use transform="matrix(0.05,0,0,0.05,30.950000000000003,0)" xlink:href="#as"/><use transform="matrix(0.05,0,0,0.05,36.9,0)" xlink:href="#aj"/><use transform="matrix(0.05,0,0,0.05,46.9,0)" xlink:href="#an"/><use transform="matrix(0.05,0,0,0.05,56.900000000000006,0)" xlink:href="#aE"/><use transform="matrix(0.05,0,0,0.05,65.9,0)" xlink:href="#aj"/></g><g id="q"><use transform="matrix(0.05,0,0,0.05,0,0)" xlink:href="#aD"/><use transform="matrix(0.05,0,0,0.05,10,0)" xlink:href="#av"/><use transform="matrix(0.05,0,0,0.05,20,0)" xlink:href="#ao"/><use transform="matrix(0.05,0,0,0.05,25,0)" xlink:href="#av"/></g><g id="r"><use transform="matrix(0.05,0,0,0.05,0,0)" xlink:href="#aG"/><use transform="matrix(0.05,0,0,0.05,3.95,0)" xlink:href="#at"/><use transform="matrix(0.05,0,0,0.05,7.9,0)" xlink:href="#aC"/><use transform="matrix(0.05,0,0,0.05,16.9,0)" xlink:href="#ao"/><use transform="matrix(0.05,0,0,0.05,21.9,0)" xlink:href="#aC"/></g><path d="M63-220v92h138v28H63V0H30v-248h175v28H63" id="aN"/><path d="M103-251c84 0 111 97 45 133-19 10-37 24-39 52H78c0-63 77-55 77-114 0-30-21-42-52-43-32 0-53 17-56 46l-32-2c7-45 34-72 88-72zM77 0v-35h34V0H77" id="aO"/><g id="s"><use transform="matrix(0.05,0,0,0.05,0,0)" xlink:href="#aN"/><use transform="matrix(0.05,0,0,0.05,10.950000000000001,0)" xlink:href="#am"/><use transform="matrix(0.05,0,0,0.05,20.950000000000003,0)" xlink:href="#aq"/><use transform="matrix(0.05,0,0,0.05,30.950000000000003,0)" xlink:href="#an"/><use transform="matrix(0.05,0,0,0.05,40.95,0)" xlink:href="#aD"/><use transform="matrix(0.05,0,0,0.05,50.95,0)" xlink:href="#aO"/></g><path d="M137-103V0h-34v-103L8-248h37l75 118 75-118h37" id="aP"/><g id="t"><use transform="matrix(0.05,0,0,0.05,0,0)" xlink:href="#aP"/><use transform="matrix(0.05,0,0,0.05,10.35,0)" xlink:href="#aj"/><use transform="matrix(0.05,0,0,0.05,20.35,0)" xlink:href="#aC"/></g><path d="M190 0L58-211 59 0H30v-248h39L202-35l-2-213h31V0h-41" id="aQ"/><g id="u"><use transform="matrix(0.05,0,0,0.05,0,0)" xlink:href="#aQ"/><use transform="matrix(0.05,0,0,0.05,12.950000000000001,0)" xlink:href="#am"/></g><g id="w"><use transform="matrix(0.05,0,0,0.05,0,0)" xlink:href="#aK"/><use transform="matrix(0.05,0,0,0.05,14,0)" xlink:href="#at"/><use transform="matrix(0.05,0,0,0.05,17.95,0)" xlink:href="#ao"/><use transform="matrix(0.05,0,0,0.05,22.95,0)" xlink:href="#ar"/><use transform="matrix(0.05,0,0,0.05,32.95,0)" xlink:href="#aq"/><use transform="matrix(0.05,0,0,0.05,42.95,0)" xlink:href="#aF"/></g><path d="M115-194c55 1 70 41 70 98S169 2 115 4C84 4 66-9 55-30l1 105H24l-1-265h31l2 30c10-21 28-34 59-34zm-8 174c40 0 45-34 45-75s-6-73-45-74c-42 0-51 32-51 76 0 43 10 73 51 73" id="aR"/><g id="x"><use transform="matrix(0.05,0,0,0.05,0,0)" xlink:href="#aR"/><use transform="matrix(0.05,0,0,0.05,10,0)" xlink:href="#aq"/><use transform="matrix(0.05,0,0,0.05,20,0)" xlink:href="#aG"/><use transform="matrix(0.05,0,0,0.05,23.95,0)" xlink:href="#aG"/></g><path d="M145-31C134-9 116 4 85 4 32 4 16-35 15-94c0-59 17-99 70-100 32-1 48 14 60 33 0-11-1-24 2-32h30l-1 268h-32zM93-21c41 0 51-33 51-76s-8-73-50-73c-40 0-46 35-46 75s5 74 45 74" id="aS"/><g id="y"><use transform="matrix(0.05,0,0,0.05,0,0)" xlink:href="#as"/><use transform="matrix(0.05,0,0,0.05,5.95,0)" xlink:href="#aj"/><use transform="matrix(0.05,0,0,0.05,15.949999999999998,0)" xlink:href="#aS"/><use transform="matrix(0.05,0,0,0.05,25.950000000000003,0)" xlink:href="#aq"/><use transform="matrix(0.05,0,0,0.05,35.95,0)" xlink:href="#aj"/><use transform="matrix(0.05,0,0,0.05,45.95,0)" xlink:href="#aC"/><use transform="matrix(0.05,0,0,0.05,54.95,0)" xlink:href="#ao"/></g><path d="M87 75C49 33 22-17 22-94c0-76 28-126 65-167h31c-38 41-64 92-64 168S80 34 118 75H87" id="aT"/><path d="M16-82v-28h88v28H16" id="aU"/><g id="z"><use transform="matrix(0.05,0,0,0.05,0,0)" xlink:href="#aT"/><use transform="matrix(0.05,0,0,0.05,5.95,0)" xlink:href="#aD"/><use transform="matrix(0.05,0,0,0.05,15.949999999999998,0)" xlink:href="#aj"/><use transform="matrix(0.05,0,0,0.05,25.950000000000003,0)" xlink:href="#aA"/><use transform="matrix(0.05,0,0,0.05,34.95,0)" xlink:href="#aU"/></g><g id="A"><use transform="matrix(0.05,0,0,0.05,0,0)" xlink:href="#ao"/><use transform="matrix(0.05,0,0,0.05,5,0)" xlink:href="#am"/></g><path d="M33-261c38 41 65 92 65 168S71 34 33 75H2C39 34 66-17 66-93S39-220 2-261h31" id="aV"/><g id="B"><use transform="matrix(0.05,0,0,0.05,0,0)" xlink:href="#as"/><use transform="matrix(0.05,0,0,0.05,5.95,0)" xlink:href="#aj"/><use transform="matrix(0.05,0,0,0.05,15.949999999999998,0)" xlink:href="#aA"/><use transform="matrix(0.05,0,0,0.05,24.95,0)" xlink:href="#at"/><use transform="matrix(0.05,0,0,0.05,28.899999999999995,0)" xlink:href="#aj"/><use transform="matrix(0.05,0,0,0.05,38.9,0)" xlink:href="#aB"/><use transform="matrix(0.05,0,0,0.05,51.85,0)" xlink:href="#aU"/><use transform="matrix(0.05,0,0,0.05,57.800000000000004,0)" xlink:href="#aV"/></g><path d="M160-131c35 5 61 23 61 61C221 17 115-2 30 0v-248c76 3 177-17 177 60 0 33-19 50-47 57zm-97-11c50-1 110 9 110-42 0-47-63-36-110-37v79zm0 115c55-2 124 14 124-45 0-56-70-42-124-44v89" id="aW"/><g id="C"><use transform="matrix(0.05,0,0,0.05,0,0)" xlink:href="#aW"/><use transform="matrix(0.05,0,0,0.05,12,0)" xlink:href="#aq"/><use transform="matrix(0.05,0,0,0.05,22,0)" xlink:href="#aC"/><use transform="matrix(0.05,0,0,0.05,31,0)" xlink:href="#at"/><use transform="matrix(0.05,0,0,0.05,34.95,0)" xlink:href="#an"/><use transform="matrix(0.05,0,0,0.05,44.95,0)" xlink:href="#aj"/><use transform="matrix(0.05,0,0,0.05,54.95,0)" xlink:href="#aC"/><use transform="matrix(0.05,0,0,0.05,63.95,0)" xlink:href="#aC"/></g><g id="D"><use transform="matrix(0.05,0,0,0.05,0,0)" xlink:href="#as"/><use transform="matrix(0.05,0,0,0.05,5.95,0)" xlink:href="#aj"/><use transform="matrix(0.05,0,0,0.05,15.949999999999998,0)" xlink:href="#aA"/><use transform="matrix(0.05,0,0,0.05,24.95,0)" xlink:href="#at"/><use transform="matrix(0.05,0,0,0.05,28.899999999999995,0)" xlink:href="#aj"/><use transform="matrix(0.05,0,0,0.05,38.9,0)" xlink:href="#aB"/></g><g id="E"><use transform="matrix(0.05,0,0,0.05,0,0)" xlink:href="#aH"/><use transform="matrix(0.05,0,0,0.05,12,0)" xlink:href="#ao"/><use transform="matrix(0.05,0,0,0.05,17,0)" xlink:href="#av"/><use transform="matrix(0.05,0,0,0.05,27,0)" xlink:href="#as"/><use transform="matrix(0.05,0,0,0.05,32.95,0)" xlink:href="#ao"/></g><g id="F"><use transform="matrix(0.05,0,0,0.05,0,0)" xlink:href="#ay"/><use transform="matrix(0.05,0,0,0.05,12,0)" xlink:href="#aq"/><use transform="matrix(0.05,0,0,0.05,22,0)" xlink:href="#aF"/><use transform="matrix(0.05,0,0,0.05,32,0)" xlink:href="#aG"/><use transform="matrix(0.05,0,0,0.05,35.95,0)" xlink:href="#at"/><use transform="matrix(0.05,0,0,0.05,39.900000000000006,0)" xlink:href="#aC"/><use transform="matrix(0.05,0,0,0.05,48.900000000000006,0)" xlink:href="#ar"/></g><path d="M137 0h-34L2-248h35l83 218 83-218h36" id="aX"/><path d="M9 0v-24l116-142H16v-24h144v24L44-24h123V0H9" id="aY"/><g id="G"><use transform="matrix(0.05,0,0,0.05,0,0)" xlink:href="#aX"/><use transform="matrix(0.05,0,0,0.05,11,0)" xlink:href="#am"/><use transform="matrix(0.05,0,0,0.05,21,0)" xlink:href="#aE"/><use transform="matrix(0.05,0,0,0.05,30,0)" xlink:href="#ay"/><use transform="matrix(0.05,0,0,0.05,42,0)" xlink:href="#as"/><use transform="matrix(0.05,0,0,0.05,47.95,0)" xlink:href="#aj"/><use transform="matrix(0.05,0,0,0.05,57.95,0)" xlink:href="#aY"/></g><path d="M127-220V0H93v-220H8v-28h204v28h-85" id="aZ"/><g id="H"><use transform="matrix(0.05,0,0,0.05,0,0)" xlink:href="#aZ"/><use transform="matrix(0.05,0,0,0.05,8.950000000000001,0)" xlink:href="#aj"/><use transform="matrix(0.05,0,0,0.05,18.950000000000003,0)" xlink:href="#aC"/><use transform="matrix(0.05,0,0,0.05,27.950000000000003,0)" xlink:href="#ao"/></g><g id="I"><use transform="matrix(0.05,0,0,0.05,0,0)" xlink:href="#aZ"/><use transform="matrix(0.05,0,0,0.05,8.950000000000001,0)" xlink:href="#aj"/><use transform="matrix(0.05,0,0,0.05,18.950000000000003,0)" xlink:href="#aE"/><use transform="matrix(0.05,0,0,0.05,27.950000000000003,0)" xlink:href="#ar"/><use transform="matrix(0.05,0,0,0.05,37.95,0)" xlink:href="#an"/><use transform="matrix(0.05,0,0,0.05,47.95,0)" xlink:href="#at"/><use transform="matrix(0.05,0,0,0.05,51.900000000000006,0)" xlink:href="#aE"/><use transform="matrix(0.05,0,0,0.05,60.900000000000006,0)" xlink:href="#av"/><use transform="matrix(0.05,0,0,0.05,70.9,0)" xlink:href="#aG"/></g><path d="M140-251c81 0 123 46 123 126C263-46 219 4 140 4 59 4 17-45 17-125s42-126 123-126zm0 227c63 0 89-41 89-101s-29-99-89-99c-61 0-89 39-89 99S79-25 140-24" id="ba"/><g id="J"><use transform="matrix(0.05,0,0,0.05,0,0)" xlink:href="#aH"/><use transform="matrix(0.05,0,0,0.05,12,0)" xlink:href="#ai"/><use transform="matrix(0.05,0,0,0.05,24,0)" xlink:href="#ba"/><use transform="matrix(0.05,0,0,0.05,38,0)" xlink:href="#aH"/></g><path d="M210-169c-67 3-38 105-44 169h-31v-121c0-29-5-50-35-48C34-165 62-65 56 0H25l-1-190h30c1 10-1 24 2 32 10-44 99-50 107 0 11-21 27-35 58-36 85-2 47 119 55 194h-31v-121c0-29-5-49-35-48" id="bb"/><g id="K"><use transform="matrix(0.05,0,0,0.05,0,0)" xlink:href="#am"/><use transform="matrix(0.05,0,0,0.05,10,0)" xlink:href="#aR"/><use transform="matrix(0.05,0,0,0.05,20,0)" xlink:href="#ao"/><use transform="matrix(0.05,0,0,0.05,25,0)" xlink:href="#at"/><use transform="matrix(0.05,0,0,0.05,28.950000000000003,0)" xlink:href="#bb"/><use transform="matrix(0.05,0,0,0.05,43.9,0)" xlink:href="#at"/><use transform="matrix(0.05,0,0,0.05,47.85,0)" xlink:href="#aC"/><use transform="matrix(0.05,0,0,0.05,56.85,0)" xlink:href="#av"/><use transform="matrix(0.05,0,0,0.05,66.85,0)" xlink:href="#ao"/><use transform="matrix(0.05,0,0,0.05,71.85,0)" xlink:href="#at"/><use transform="matrix(0.05,0,0,0.05,75.8,0)" xlink:href="#am"/><use transform="matrix(0.05,0,0,0.05,85.8,0)" xlink:href="#an"/></g><g id="L"><use transform="matrix(0.05,0,0,0.05,0,0)" xlink:href="#aK"/><use transform="matrix(0.05,0,0,0.05,14,0)" xlink:href="#at"/><use transform="matrix(0.05,0,0,0.05,17.95,0)" xlink:href="#ao"/><use transform="matrix(0.05,0,0,0.05,22.95,0)" xlink:href="#ar"/><use transform="matrix(0.05,0,0,0.05,32.95,0)" xlink:href="#aq"/><use transform="matrix(0.05,0,0,0.05,42.95,0)" xlink:href="#aF"/></g><g id="M"><use transform="matrix(0.05,0,0,0.05,0,0)" xlink:href="#aT"/><use transform="matrix(0.05,0,0,0.05,5.95,0)" xlink:href="#as"/><use transform="matrix(0.05,0,0,0.05,11.9,0)" xlink:href="#aj"/><use transform="matrix(0.05,0,0,0.05,21.9,0)" xlink:href="#aA"/><use transform="matrix(0.05,0,0,0.05,30.899999999999995,0)" xlink:href="#at"/><use transform="matrix(0.05,0,0,0.05,34.85,0)" xlink:href="#aj"/><use transform="matrix(0.05,0,0,0.05,44.85,0)" xlink:href="#aB"/><use transform="matrix(0.05,0,0,0.05,57.800000000000004,0)" xlink:href="#aU"/></g><g id="N"><use transform="matrix(0.05,0,0,0.05,0,0)" xlink:href="#bb"/><use transform="matrix(0.05,0,0,0.05,14.950000000000001,0)" xlink:href="#av"/><use transform="matrix(0.05,0,0,0.05,24.950000000000003,0)" xlink:href="#aC"/><use transform="matrix(0.05,0,0,0.05,33.95,0)" xlink:href="#ao"/><use transform="matrix(0.05,0,0,0.05,38.95,0)" xlink:href="#aj"/><use transform="matrix(0.05,0,0,0.05,48.95,0)" xlink:href="#as"/><use transform="matrix(0.05,0,0,0.05,54.900000000000006,0)" xlink:href="#aU"/><use transform="matrix(0.05,0,0,0.05,60.85,0)" xlink:href="#aV"/></g><g id="O"><use transform="matrix(0.05,0,0,0.05,0,0)" xlink:href="#aX"/><use transform="matrix(0.05,0,0,0.05,10.65,0)" xlink:href="#av"/><use transform="matrix(0.05,0,0,0.05,20.65,0)" xlink:href="#aG"/><use transform="matrix(0.05,0,0,0.05,24.599999999999998,0)" xlink:href="#at"/><use transform="matrix(0.05,0,0,0.05,28.549999999999997,0)" xlink:href="#aD"/><use transform="matrix(0.05,0,0,0.05,38.55,0)" xlink:href="#aO"/></g><g id="P"><use transform="matrix(0.05,0,0,0.05,0,0)" xlink:href="#ay"/><use transform="matrix(0.05,0,0,0.05,12,0)" xlink:href="#as"/><use transform="matrix(0.05,0,0,0.05,17.95,0)" xlink:href="#am"/><use transform="matrix(0.05,0,0,0.05,27.950000000000003,0)" xlink:href="#aE"/><use transform="matrix(0.05,0,0,0.05,36.95,0)" xlink:href="#aj"/><use transform="matrix(0.05,0,0,0.05,46.95,0)" xlink:href="#aC"/><use transform="matrix(0.05,0,0,0.05,55.95,0)" xlink:href="#aC"/></g><g id="Q"><use transform="matrix(0.05,0,0,0.05,0,0)" xlink:href="#aC"/><use transform="matrix(0.05,0,0,0.05,9,0)" xlink:href="#ao"/><use transform="matrix(0.05,0,0,0.05,14,0)" xlink:href="#av"/><use transform="matrix(0.05,0,0,0.05,24,0)" xlink:href="#as"/><use transform="matrix(0.05,0,0,0.05,29.950000000000003,0)" xlink:href="#ao"/></g><g id="R"><use transform="matrix(0.05,0,0,0.05,0,0)" xlink:href="#aj"/><use transform="matrix(0.05,0,0,0.05,10,0)" xlink:href="#an"/><use transform="matrix(0.05,0,0,0.05,20,0)" xlink:href="#aD"/></g><path d="M143 0L79-87 56-68V0H24v-261h32v163l83-92h37l-77 82L181 0h-38" id="bc"/><g id="S"><use transform="matrix(0.05,0,0,0.05,0,0)" xlink:href="#aZ"/><use transform="matrix(0.05,0,0,0.05,8.950000000000001,0)" xlink:href="#av"/><use transform="matrix(0.05,0,0,0.05,18.950000000000003,0)" xlink:href="#aC"/><use transform="matrix(0.05,0,0,0.05,27.950000000000003,0)" xlink:href="#bc"/></g><g id="T"><use transform="matrix(0.05,0,0,0.05,0,0)" xlink:href="#aK"/><use transform="matrix(0.05,0,0,0.05,14,0)" xlink:href="#av"/><use transform="matrix(0.05,0,0,0.05,24,0)" xlink:href="#ao"/><use transform="matrix(0.05,0,0,0.05,29,0)" xlink:href="#aj"/><use transform="matrix(0.05,0,0,0.05,39,0)" xlink:href="#aB"/><use transform="matrix(0.05,0,0,0.05,51.95,0)" xlink:href="#av"/><use transform="matrix(0.05,0,0,0.05,61.95,0)" xlink:href="#ak"/></g><g id="U"><use transform="matrix(0.05,0,0,0.05,0,0)" xlink:href="#aT"/><use transform="matrix(0.05,0,0,0.05,5.95,0)" xlink:href="#aD"/><use transform="matrix(0.05,0,0,0.05,15.949999999999998,0)" xlink:href="#aj"/><use transform="matrix(0.05,0,0,0.05,25.950000000000003,0)" xlink:href="#aE"/><use transform="matrix(0.05,0,0,0.05,34.95,0)" xlink:href="#at"/><use transform="matrix(0.05,0,0,0.05,38.900000000000006,0)" xlink:href="#aC"/><use transform="matrix(0.05,0,0,0.05,47.900000000000006,0)" xlink:href="#at"/><use transform="matrix(0.05,0,0,0.05,51.85,0)" xlink:href="#am"/><use transform="matrix(0.05,0,0,0.05,61.85,0)" xlink:href="#an"/><use transform="matrix(0.05,0,0,0.05,71.85000000000001,0)" xlink:href="#aV"/></g><path d="M147 0H94L2-248h55l64 206c17-72 42-137 63-206h54" id="bd"/><path d="M110-194c64 0 96 36 96 99 0 64-35 99-97 99-61 0-95-36-95-99 0-62 34-99 96-99zm-1 164c35 0 45-28 45-65 0-40-10-65-43-65-34 0-45 26-45 65 0 36 10 65 43 65" id="be"/><path d="M190-63c-7 42-38 67-86 67-59 0-84-38-90-98-12-110 154-137 174-36l-49 2c-2-19-15-32-35-32-30 0-35 28-38 64-6 74 65 87 74 30" id="bf"/><path d="M133-34C117-15 103 5 69 4 32 3 11-16 11-54c-1-60 55-63 116-61 1-26-3-47-28-47-18 1-26 9-28 27l-52-2c7-38 36-58 82-57s74 22 75 68l1 82c-1 14 12 18 25 15v27c-30 8-71 5-69-32zm-48 3c29 0 43-24 42-57-32 0-66-3-65 30 0 17 8 27 23 27" id="bg"/><path d="M135-194c52 0 70 43 70 98 0 56-19 99-73 100-30 1-46-15-58-35L72 0H24l1-261h50v104c11-23 29-37 60-37zM114-30c31 0 40-27 40-66 0-37-7-63-39-63s-41 28-41 65c0 36 8 64 40 64" id="bh"/><path d="M85 4C-2 5 27-109 22-190h50c7 57-23 150 33 157 60-5 35-97 40-157h50l1 190h-47c-2-12 1-28-3-38-12 25-28 42-61 42" id="bi"/><path d="M25 0v-261h50V0H25" id="bj"/><path d="M135-150c-39-12-60 13-60 57V0H25l-1-190h47c2 13-1 29 3 40 6-28 27-53 61-41v41" id="bk"/><path d="M123 10C108 53 80 86 19 72V37c35 8 53-11 59-39L3-190h52l48 148c12-52 28-100 44-148h51" id="bl"/><g id="V"><use transform="matrix(0.07765071297472823,0,0,0.07765071297472823,0,0)" xlink:href="#bd"/><use transform="matrix(0.07765071297472823,0,0,0.07765071297472823,16.539601863617115,0)" xlink:href="#be"/><use transform="matrix(0.07765071297472823,0,0,0.07765071297472823,33.5451080050826,0)" xlink:href="#bf"/><use transform="matrix(0.07765071297472823,0,0,0.07765071297472823,49.07525060002824,0)" xlink:href="#bg"/><use transform="matrix(0.07765071297472823,0,0,0.07765071297472823,64.60539319497389,0)" xlink:href="#bh"/><use transform="matrix(0.07765071297472823,0,0,0.07765071297472823,81.61089933643936,0)" xlink:href="#bi"/><use transform="matrix(0.07765071297472823,0,0,0.07765071297472823,98.61640547790483,0)" xlink:href="#bj"/><use transform="matrix(0.07765071297472823,0,0,0.07765071297472823,106.38147677537765,0)" xlink:href="#bg"/><use transform="matrix(0.07765071297472823,0,0,0.07765071297472823,121.9116193703233,0)" xlink:href="#bk"/><use transform="matrix(0.07765071297472823,0,0,0.07765071297472823,132.78271918678524,0)" xlink:href="#bl"/></g><path d="M240-174c0 40-23 61-54 70L253 0h-59l-57-94H76V0H24v-248c93 4 217-23 216 74zM76-134c48-2 112 12 112-38 0-48-66-32-112-35v73" id="bm"/><path d="M185-48c-13 30-37 53-82 52C43 2 14-33 14-96s30-98 90-98c62 0 83 45 84 108H66c0 31 8 55 39 56 18 0 30-7 34-22zm-45-69c5-46-57-63-70-21-2 6-4 13-4 21h74" id="bn"/><path d="M128 0H69L1-190h53L99-40l48-150h52" id="bo"/><path d="M25-224v-37h50v37H25zM25 0v-190h50V0H25" id="bp"/><path d="M231 0h-52l-39-155L100 0H48L-1-190h46L77-45c9-52 24-97 36-145h53l37 145 32-145h46" id="bq"/><g id="W"><use transform="matrix(0.07765071297472823,0,0,0.07765071297472823,0,0)" xlink:href="#bm"/><use transform="matrix(0.07765071297472823,0,0,0.07765071297472823,20.11153466045461,0)" xlink:href="#bn"/><use transform="matrix(0.07765071297472823,0,0,0.07765071297472823,35.64167725540025,0)" xlink:href="#bo"/><use transform="matrix(0.07765071297472823,0,0,0.07765071297472823,51.1718198503459,0)" xlink:href="#bp"/><use transform="matrix(0.07765071297472823,0,0,0.07765071297472823,58.93689114781872,0)" xlink:href="#bn"/><use transform="matrix(0.07765071297472823,0,0,0.07765071297472823,74.46703374276436,0)" xlink:href="#bq"/></g><path d="M275 0h-61l-44-196L126 0H64L0-248h53L97-49l45-199h58l43 199 44-199h52" id="br"/><path d="M147 0L96-86 75-71V0H25v-261h50v150l67-79h53l-66 74L201 0h-54" id="bs"/><path d="M121-226c-27-7-43 5-38 36h38v33H83V0H34v-157H6v-33h28c-9-59 32-81 87-68v32" id="bt"/><g id="X"><use transform="matrix(0.07765071297472823,0,0,0.07765071297472823,0,0)" xlink:href="#br"/><use transform="matrix(0.07765071297472823,0,0,0.07765071297472823,25.78003670760977,0)" xlink:href="#be"/><use transform="matrix(0.07765071297472823,0,0,0.07765071297472823,42.78554284907525,0)" xlink:href="#bk"/><use transform="matrix(0.07765071297472823,0,0,0.07765071297472823,53.656642665537206,0)" xlink:href="#bs"/><use transform="matrix(0.07765071297472823,0,0,0.07765071297472823,69.18678526048285,0)" xlink:href="#bt"/><use transform="matrix(0.07765071297472823,0,0,0.07765071297472823,78.42722010447551,0)" xlink:href="#bj"/><use transform="matrix(0.07765071297472823,0,0,0.07765071297472823,86.19229140194832,0)" xlink:href="#be"/><use transform="matrix(0.07765071297472823,0,0,0.07765071297472823,103.1977975434138,0)" xlink:href="#bq"/></g><g id="Y"><use transform="matrix(0.05,0,0,0.05,0,0)" xlink:href="#al"/><use transform="matrix(0.05,0,0,0.05,12.950000000000001,0)" xlink:href="#am"/><use transform="matrix(0.05,0,0,0.05,22.950000000000003,0)" xlink:href="#an"/><use transform="matrix(0.05,0,0,0.05,32.95,0)" xlink:href="#ao"/><use transform="matrix(0.05,0,0,0.05,37.95,0)" xlink:href="#aj"/><use transform="matrix(0.05,0,0,0.05,47.95,0)" xlink:href="#an"/><use transform="matrix(0.05,0,0,0.05,57.95,0)" xlink:href="#ao"/></g><g id="Z"><use transform="matrix(0.05,0,0,0.05,0,0)" xlink:href="#aJ"/><use transform="matrix(0.05,0,0,0.05,12,0)" xlink:href="#aD"/><use transform="matrix(0.05,0,0,0.05,22,0)" xlink:href="#at"/><use transform="matrix(0.05,0,0,0.05,25.950000000000003,0)" xlink:href="#ao"/></g><g id="aa"><use transform="matrix(0.05,0,0,0.05,0,0)" xlink:href="#aA"/><use transform="matrix(0.05,0,0,0.05,9,0)" xlink:href="#am"/><use transform="matrix(0.05,0,0,0.05,19,0)" xlink:href="#aE"/><use transform="matrix(0.05,0,0,0.05,28,0)" xlink:href="#av"/><use transform="matrix(0.05,0,0,0.05,38,0)" xlink:href="#aF"/><use transform="matrix(0.05,0,0,0.05,48,0)" xlink:href="#aq"/><use transform="matrix(0.05,0,0,0.05,58,0)" xlink:href="#aG"/><use transform="matrix(0.05,0,0,0.05,61.95,0)" xlink:href="#av"/><use transform="matrix(0.05,0,0,0.05,71.95,0)" xlink:href="#as"/><use transform="matrix(0.05,0,0,0.05,77.9,0)" xlink:href="#ak"/></g><g id="ab"><use transform="matrix(0.05,0,0,0.05,0,0)" xlink:href="#aP"/><use transform="matrix(0.05,0,0,0.05,10.35,0)" xlink:href="#aj"/><use transform="matrix(0.05,0,0,0.05,20.35,0)" xlink:href="#aC"/></g><g id="ac"><use transform="matrix(0.05,0,0,0.05,0,0)" xlink:href="#aJ"/><use transform="matrix(0.05,0,0,0.05,12,0)" xlink:href="#an"/><use transform="matrix(0.05,0,0,0.05,22,0)" xlink:href="#aD"/><use transform="matrix(0.05,0,0,0.05,32,0)" xlink:href="#am"/><use transform="matrix(0.05,0,0,0.05,42,0)" xlink:href="#as"/><use transform="matrix(0.05,0,0,0.05,47.95,0)" xlink:href="#aC"/><use transform="matrix(0.05,0,0,0.05,56.95,0)" xlink:href="#aj"/><use transform="matrix(0.05,0,0,0.05,66.95,0)" xlink:href="#aD"/><use transform="matrix(0.05,0,0,0.05,76.95,0)" xlink:href="#aO"/></g><g id="ad"><use transform="matrix(0.05,0,0,0.05,0,0)" xlink:href="#ap"/><use transform="matrix(0.05,0,0,0.05,12,0)" xlink:href="#aR"/><use transform="matrix(0.05,0,0,0.05,22,0)" xlink:href="#aR"/><use transform="matrix(0.05,0,0,0.05,32,0)" xlink:href="#as"/><use transform="matrix(0.05,0,0,0.05,37.95,0)" xlink:href="#am"/><use transform="matrix(0.05,0,0,0.05,47.95,0)" xlink:href="#aA"/><use transform="matrix(0.05,0,0,0.05,56.95,0)" xlink:href="#aj"/><use transform="matrix(0.05,0,0,0.05,66.95,0)" xlink:href="#aD"/><use transform="matrix(0.05,0,0,0.05,76.95,0)" xlink:href="#aO"/></g><g id="ae"><use transform="matrix(0.05,0,0,0.05,0,0)" xlink:href="#aJ"/><use transform="matrix(0.05,0,0,0.05,12,0)" xlink:href="#an"/><use transform="matrix(0.05,0,0,0.05,22,0)" xlink:href="#aD"/></g><g id="af"><use transform="matrix(0.05,0,0,0.05,0,0)" xlink:href="#aX"/><use transform="matrix(0.05,0,0,0.05,11,0)" xlink:href="#am"/><use transform="matrix(0.05,0,0,0.05,21,0)" xlink:href="#aE"/><use transform="matrix(0.05,0,0,0.05,30,0)" xlink:href="#ay"/><use transform="matrix(0.05,0,0,0.05,42,0)" xlink:href="#as"/><use transform="matrix(0.05,0,0,0.05,47.95,0)" xlink:href="#aj"/><use transform="matrix(0.05,0,0,0.05,57.95,0)" xlink:href="#aY"/></g><g id="ag"><use transform="matrix(0.05,0,0,0.05,0,0)" xlink:href="#ay"/><use transform="matrix(0.05,0,0,0.05,12,0)" xlink:href="#as"/><use transform="matrix(0.05,0,0,0.05,17.95,0)" xlink:href="#am"/><use transform="matrix(0.05,0,0,0.05,27.950000000000003,0)" xlink:href="#aD"/><use transform="matrix(0.05,0,0,0.05,37.95,0)" xlink:href="#aq"/><use transform="matrix(0.05,0,0,0.05,47.95,0)" xlink:href="#aE"/><use transform="matrix(0.05,0,0,0.05,56.95,0)" xlink:href="#ao"/><use transform="matrix(0.05,0,0,0.05,61.95,0)" xlink:href="#at"/><use transform="matrix(0.05,0,0,0.05,65.9,0)" xlink:href="#am"/><use transform="matrix(0.05,0,0,0.05,75.9,0)" xlink:href="#an"/></g><g id="ah"><use transform="matrix(0.05176714198315215,0,0,0.05176714198315215,0,0)" xlink:href="#aP"/><use transform="matrix(0.05176714198315215,0,0,0.05176714198315215,10.715798390512496,0)" xlink:href="#aj"/><use transform="matrix(0.05176714198315215,0,0,0.05176714198315215,21.069226787142927,0)" xlink:href="#aC"/></g></defs></g></svg>